<svg width="34" height="19" viewBox="0 0 34 19" fill="none" xmlns="http://www.w3.org/2000/svg">
<path d="M10.6591 4.90909C10.5568 4.04545 10.142 3.375 9.41477 2.89773C8.6875 2.42045 7.79545 2.18182 6.73864 2.18182C5.96591 2.18182 5.28977 2.30682 4.71023 2.55682C4.13636 2.80682 3.6875 3.15057 3.36364 3.58807C3.04545 4.02557 2.88636 4.52273 2.88636 5.07954C2.88636 5.54545 2.99716 5.94602 3.21875 6.28125C3.44602 6.6108 3.7358 6.88636 4.08807 7.10795C4.44034 7.32386 4.80966 7.50284 5.19602 7.64489C5.58239 7.78125 5.9375 7.89205 6.26136 7.97727L8.03409 8.45455C8.48864 8.57386 8.99432 8.73864 9.55114 8.94886C10.1136 9.15909 10.6506 9.44602 11.1619 9.80966C11.679 10.1676 12.1051 10.6278 12.4403 11.1903C12.7756 11.7528 12.9432 12.4432 12.9432 13.2614C12.9432 14.2045 12.696 15.0568 12.2017 15.8182C11.7131 16.5795 10.9972 17.1847 10.054 17.6335C9.11648 18.0824 7.97727 18.3068 6.63636 18.3068C5.38636 18.3068 4.30398 18.1051 3.3892 17.7017C2.48011 17.2983 1.7642 16.7358 1.24148 16.0142C0.724432 15.2926 0.431818 14.4545 0.363636 13.5H2.54545C2.60227 14.1591 2.82386 14.7045 3.21023 15.1364C3.60227 15.5625 4.09659 15.8807 4.69318 16.0909C5.29545 16.2955 5.94318 16.3977 6.63636 16.3977C7.44318 16.3977 8.16761 16.267 8.80966 16.0057C9.4517 15.7386 9.96023 15.3693 10.3352 14.8977C10.7102 14.4205 10.8977 13.8636 10.8977 13.2273C10.8977 12.6477 10.7358 12.1761 10.4119 11.8125C10.0881 11.4489 9.66193 11.1534 9.13352 10.9261C8.60511 10.6989 8.03409 10.5 7.42045 10.3295L5.27273 9.71591C3.90909 9.32386 2.82955 8.7642 2.03409 8.03693C1.23864 7.30966 0.840909 6.35795 0.840909 5.18182C0.840909 4.20454 1.10511 3.35227 1.63352 2.625C2.16761 1.89205 2.88352 1.32386 3.78125 0.920454C4.68466 0.511363 5.69318 0.306818 6.80682 0.306818C7.93182 0.306818 8.93182 0.508522 9.80682 0.911931C10.6818 1.30966 11.375 1.85511 11.8864 2.54829C12.4034 3.24148 12.6761 4.02841 12.7045 4.90909H10.6591ZM16.4183 0.545454H18.9411L24.8729 15.0341H25.0774L31.0092 0.545454H33.532V18H31.5547V4.73864H31.3842L25.9297 18H24.0206L18.5661 4.73864H18.3956V18H16.4183V0.545454Z" fill="white"/>
</svg>
